<?xml version="1.0" encoding="UTF-8" standalone="no"?><!DOCTYPE svg PUBLIC "-//W3C//DTD SVG 1.1//EN" "http://www.w3.org/Graphics/SVG/1.1/DTD/svg11.dtd"><svg width="100%" height="100%" viewBox="0 0 696 696" version="1.1" xmlns="http://www.w3.org/2000/svg" xmlns:xlink="http://www.w3.org/1999/xlink" xml:space="preserve" xmlns:serif="http://www.serif.com/" style="fill-rule:evenodd;clip-rule:evenodd;stroke-linejoin:round;stroke-miterlimit:2;"><path d="M275.324,516.697l0,48.405l51.561,10.715l-0,56.165l-197.884,-0l0,-56.165l54.81,-10.715l0,-434.007l-57.928,-10.715l-0,-56.528l149.441,-0l0,209.911c36.167,-24.137 213.604,-134.575 239.532,3.471c8.442,44.946 -45.531,101.444 -105.271,148.794l108.105,139.49l52.261,10.299l-0,56.165l-189.144,-0l0,-54.344l34.342,-6.032l-0.962,-1.456l-72.003,-95.304c-29.322,19.611 -54.325,34.554 -66.86,41.851Zm0,-176.576l0,85.336c79.352,-52.714 140.244,-105.364 124.122,-135.959c-12.974,-24.619 -52.81,-2.407 -124.122,50.623Z"/></svg>